{
    "asset":  {
                  "version":  "2.0",
                  "generator":  "Rep. Tumba (compactado a partir de FC Porto Shirt, de Carlos.Maciel, CC BY 4.0)"
              },
    "extensionsUsed":  [
                           "KHR_mesh_quantization"
                       ],
    "extensionsRequired":  [
                               "KHR_mesh_quantization"
                           ],
    "scene":  0,
    "scenes":  [
                   {
                       "nodes":  [
                                     0
                                 ]
                   }
               ],
    "nodes":  [
                  {
                      "name":  "Sketchfab_model",
                      "matrix":  [
                                     1.0,
                                     0.0,
                                     0.0,
                                     0.0,
                                     0.0,
                                     2.2204460492503131E-16,
                                     -1.0,
                                     0.0,
                                     0.0,
                                     1.0,
                                     2.2204460492503131E-16,
                                     0.0,
                                     0.0,
                                     0.0,
                                     0.0,
                                     1.0
                                 ],
                      "children":  [
                                       1
                                   ]
                  },
                  {
                      "name":  "root",
                      "children":  [
                                       2
                                   ]
                  },
                  {
                      "name":  "GLTF_SceneRootNode",
                      "matrix":  [
                                     1.0,
                                     0.0,
                                     0.0,
                                     0.0,
                                     0.0,
                                     2.2204460492503131E-16,
                                     1.0,
                                     0.0,
                                     0.0,
                                     -1.0,
                                     2.2204460492503131E-16,
                                     0.0,
                                     0.0,
                                     0.0,
                                     0.0,
                                     1.0
                                 ],
                      "children":  [
                                       3
                                   ]
                  },
                  {
                      "name":  "T_Shirt_0",
                      "rotation":  [
                                       -0.0028421918395906687,
                                       0.8155689239501953,
                                       -0.00032338936580345035,
                                       0.5786529183387756
                                   ],
                      "scale":  [
                                    0.010677247308194637,
                                    0.010677249170839787,
                                    0.010677249170839787
                                ],
                      "translation":  [
                                          -0.24793842434883118,
                                          0.05557338520884514,
                                          -0.31044653058052063
                                      ],
                      "children":  [
                                       4
                                   ]
                  },
                  {
                      "name":  "Object_4",
                      "mesh":  0
                  }
              ],
    "meshes":  [
                   {
                       "name":  "Object_0",
                       "primitives":  [
                                          {
                                              "attributes":  {
                                                                 "POSITION":  0,
                                                                 "NORMAL":  1,
                                                                 "TEXCOORD_0":  2
                                                             },
                                              "indices":  3,
                                              "material":  0,
                                              "mode":  4
                                          }
                                      ]
                   }
               ],
    "materials":  [
                      {
                          "name":  "Louis_Vuitton_Original",
                          "doubleSided":  true,
                          "pbrMetallicRoughness":  {
                                                       "metallicFactor":  0,
                                                       "roughnessFactor":  0.57
                                                   }
                      }
                  ],
    "accessors":  [
                      {
                          "bufferView":  0,
                          "componentType":  5126,
                          "count":  40014,
                          "type":  "VEC3",
                          "min":  [
                                      -22.3246689,
                                      0.008126667,
                                      -26.4110184
                                  ],
                          "max":  [
                                      10.6878347,
                                      61.3246,
                                      22.1469669
                                  ]
                      },
                      {
                          "bufferView":  1,
                          "componentType":  5120,
                          "normalized":  true,
                          "count":  40014,
                          "type":  "VEC3"
                      },
                      {
                          "bufferView":  2,
                          "componentType":  5123,
                          "normalized":  true,
                          "count":  40014,
                          "type":  "VEC2"
                      },
                      {
                          "bufferView":  3,
                          "componentType":  5123,
                          "count":  232272,
                          "type":  "SCALAR"
                      }
                  ],
    "bufferViews":  [
                        {
                            "buffer":  0,
                            "byteOffset":  0,
                            "byteLength":  480168,
                            "target":  34962,
                            "byteStride":  12
                        },
                        {
                            "buffer":  0,
                            "byteOffset":  480168,
                            "byteLength":  160056,
                            "target":  34962,
                            "byteStride":  4
                        },
                        {
                            "buffer":  0,
                            "byteOffset":  640224,
                            "byteLength":  160056,
                            "target":  34962,
                            "byteStride":  4
                        },
                        {
                            "buffer":  0,
                            "byteOffset":  800280,
                            "byteLength":  464544,
                            "target":  34963
                        }
                    ],
    "buffers":  [
                    {
                        "byteLength":  1264824,
                        "uri":  "camisa.bin"
                    }
                ]
}