{
  "accessors": [
    {
      "bufferView": 2,
      "componentType": 5126,
      "count": 40014,
      "max": [
        10.687834739685059,
        61.32460021972656,
        22.1469669342041
      ],
      "min": [
        -22.324668884277344,
        0.008126666769385338,
        -26.41101837158203
      ],
      "type": "VEC3"
    },
    {
      "bufferView": 2,
      "byteOffset": 480168,
      "componentType": 5126,
      "count": 40014,
      "max": [
        0.9999592900276184,
        0.9999903440475464,
        0.999957799911499
      ],
      "min": [
        -0.9999037384986877,
        -0.9998720288276672,
        -0.999980092048645
      ],
      "type": "VEC3"
    },
    {
      "bufferView": 3,
      "componentType": 5126,
      "count": 40014,
      "max": [
        1.0,
        0.9915845394134521,
        0.999992311000824,
        1.0
      ],
      "min": [
        -0.9999585747718811,
        -0.9994674324989319,
        -0.9998412132263184,
        -1.0
      ],
      "type": "VEC4"
    },
    {
      "bufferView": 1,
      "componentType": 5126,
      "count": 40014,
      "max": [
        0.9977934956550598,
        0.9976170063018799
      ],
      "min": [
        0.002191999927163124,
        0.014406999573111534
      ],
      "type": "VEC2"
    },
    {
      "bufferView": 0,
      "componentType": 5125,
      "count": 232272,
      "type": "SCALAR"
    },
    {
      "bufferView": 2,
      "byteOffset": 960336,
      "componentType": 5126,
      "count": 16,
      "max": [
        20.0,
        20.0,
        20.0
      ],
      "min": [
        -20.0,
        0.0,
        -20.0
      ],
      "type": "VEC3"
    },
    {
      "bufferView": 2,
      "byteOffset": 960528,
      "componentType": 5126,
      "count": 16,
      "max": [
        1.0,
        1.0,
        1.0
      ],
      "min": [
        -1.0,
        0.0,
        -0.0
      ],
      "type": "VEC3"
    },
    {
      "bufferView": 1,
      "byteOffset": 320112,
      "componentType": 5126,
      "count": 16,
      "max": [
        1.0,
        1.0
      ],
      "min": [
        0.0,
        0.0
      ],
      "type": "VEC2"
    },
    {
      "bufferView": 0,
      "byteOffset": 929088,
      "componentType": 5125,
      "count": 24,
      "type": "SCALAR"
    },
    {
      "bufferView": 2,
      "byteOffset": 960720,
      "componentType": 5126,
      "count": 232,
      "max": [
        43.629112243652344,
        30.704830169677734,
        22.224275588989258
      ],
      "min": [
        -43.373138427734375,
        -3.080728530883789,
        -24.26919937133789
      ],
      "type": "VEC3"
    },
    {
      "bufferView": 2,
      "byteOffset": 963504,
      "componentType": 5126,
      "count": 232,
      "max": [
        1.0,
        1.0,
        1.0
      ],
      "min": [
        -1.0,
        -1.0,
        -1.0
      ],
      "type": "VEC3"
    },
    {
      "bufferView": 1,
      "byteOffset": 320240,
      "componentType": 5126,
      "count": 232,
      "max": [
        0.875,
        1.0
      ],
      "min": [
        0.125,
        0.0
      ],
      "type": "VEC2"
    },
    {
      "bufferView": 0,
      "byteOffset": 929184,
      "componentType": 5125,
      "count": 348,
      "type": "SCALAR"
    },
    {
      "bufferView": 4,
      "componentType": 5126,
      "count": 200,
      "max": [
        8.333333015441895
      ],
      "min": [
        0.0416666679084301
      ],
      "type": "SCALAR"
    },
    {
      "bufferView": 5,
      "componentType": 5126,
      "count": 200,
      "max": [
        -0.24793842434883118,
        0.05557338520884514,
        -0.31044653058052063
      ],
      "min": [
        -0.24793842434883118,
        0.0401206910610199,
        -0.31044653058052063
      ],
      "type": "VEC3"
    },
    {
      "bufferView": 4,
      "byteOffset": 800,
      "componentType": 5126,
      "count": 200,
      "max": [
        8.333333015441895
      ],
      "min": [
        0.0416666679084301
      ],
      "type": "SCALAR"
    },
    {
      "bufferView": 6,
      "componentType": 5126,
      "count": 200,
      "max": [
        0.002498665824532509,
        0.9999951124191284,
        0.0013777686981484294,
        0.5738134980201721
      ],
      "min": [
        -0.002860493026673794,
        -0.9999850392341614,
        -0.002510619582608342,
        0.0012502155732363462
      ],
      "type": "VEC4"
    },
    {
      "bufferView": 4,
      "byteOffset": 1600,
      "componentType": 5126,
      "count": 3,
      "max": [
        8.333333015441895
      ],
      "min": [
        0.0416666679084301
      ],
      "type": "SCALAR"
    },
    {
      "bufferView": 5,
      "byteOffset": 2400,
      "componentType": 5126,
      "count": 3,
      "max": [
        0.010677248239517212,
        0.010677249170839787,
        0.010677249170839787
      ],
      "min": [
        0.010677247308194637,
        0.010677249170839787,
        0.010677249170839787
      ],
      "type": "VEC3"
    }
  ],
  "animations": [
    {
      "channels": [
        {
          "sampler": 0,
          "target": {
            "node": 3,
            "path": "translation"
          }
        },
        {
          "sampler": 1,
          "target": {
            "node": 3,
            "path": "rotation"
          }
        },
        {
          "sampler": 2,
          "target": {
            "node": 3,
            "path": "scale"
          }
        }
      ],
      "name": "Animation",
      "samplers": [
        {
          "input": 13,
          "interpolation": "LINEAR",
          "output": 14
        },
        {
          "input": 15,
          "interpolation": "LINEAR",
          "output": 16
        },
        {
          "input": 17,
          "interpolation": "LINEAR",
          "output": 18
        }
      ]
    }
  ],
  "asset": {
    "extras": {
      "author": "Carlos.Maciel (https://sketchfab.com/Carlos.Maciel)",
      "license": "CC-BY-4.0 (http://creativecommons.org/licenses/by/4.0/)",
      "source": "https://sketchfab.com/3d-models/fc-porto-shirt-132d995c35f1480889ff544734ca86cf",
      "title": "FC Porto Shirt"
    },
    "generator": "Sketchfab-13.74.0",
    "version": "2.0"
  },
  "bufferViews": [
    {
      "buffer": 0,
      "byteLength": 930576,
      "name": "floatBufferViews",
      "target": 34963
    },
    {
      "buffer": 0,
      "byteLength": 322096,
      "byteOffset": 930576,
      "byteStride": 8,
      "name": "floatBufferViews",
      "target": 34962
    },
    {
      "buffer": 0,
      "byteLength": 966288,
      "byteOffset": 1252672,
      "byteStride": 12,
      "name": "floatBufferViews",
      "target": 34962
    },
    {
      "buffer": 0,
      "byteLength": 640224,
      "byteOffset": 2218960,
      "byteStride": 16,
      "name": "floatBufferViews",
      "target": 34962
    },
    {
      "buffer": 0,
      "byteLength": 1612,
      "byteOffset": 2859184,
      "name": "floatBufferViews"
    },
    {
      "buffer": 0,
      "byteLength": 2436,
      "byteOffset": 2860796,
      "byteStride": 12,
      "name": "floatBufferViews"
    },
    {
      "buffer": 0,
      "byteLength": 3200,
      "byteOffset": 2863232,
      "byteStride": 16,
      "name": "floatBufferViews"
    }
  ],
  "buffers": [
    {
      "byteLength": 2866432,
      "uri": "scene.bin"
    }
  ],
  "materials": [
    {
      "doubleSided": true,
      "name": "Louis_Vuitton_Original",
      "pbrMetallicRoughness": {
        "metallicFactor": 0.0,
        "roughnessFactor": 0.5714303129304774
      }
    },
    {
      "doubleSided": true,
      "name": "Backdrop_V2",
      "pbrMetallicRoughness": {
        "metallicFactor": 0.0
      }
    },
    {
      "doubleSided": true,
      "name": "IndirectBaking",
      "pbrMetallicRoughness": {
        "baseColorFactor": [
          0.85,
          0.85,
          0.85,
          1.0
        ],
        "metallicFactor": 0.0,
        "roughnessFactor": 0.5
      }
    }
  ],
  "meshes": [
    {
      "name": "Object_0",
      "primitives": [
        {
          "attributes": {
            "NORMAL": 1,
            "POSITION": 0,
            "TANGENT": 2,
            "TEXCOORD_0": 3
          },
          "indices": 4,
          "material": 0,
          "mode": 4
        }
      ]
    },
    {
      "name": "mesh_1",
      "primitives": [
        {
          "attributes": {
            "NORMAL": 6,
            "POSITION": 5,
            "TEXCOORD_0": 7
          },
          "indices": 8,
          "material": 1,
          "mode": 4
        }
      ]
    },
    {
      "name": "Object_2",
      "primitives": [
        {
          "attributes": {
            "NORMAL": 10,
            "POSITION": 9,
            "TEXCOORD_0": 11
          },
          "indices": 12,
          "material": 2,
          "mode": 4
        }
      ]
    }
  ],
  "nodes": [
    {
      "children": [
        1
      ],
      "matrix": [
        1.0,
        0.0,
        0.0,
        0.0,
        0.0,
        2.220446049250313e-16,
        -1.0,
        0.0,
        0.0,
        1.0,
        2.220446049250313e-16,
        0.0,
        0.0,
        0.0,
        0.0,
        1.0
      ],
      "name": "Sketchfab_model"
    },
    {
      "children": [
        2
      ],
      "name": "root"
    },
    {
      "children": [
        3,
        5,
        6,
        8
      ],
      "matrix": [
        1.0,
        0.0,
        0.0,
        0.0,
        0.0,
        2.220446049250313e-16,
        1.0,
        0.0,
        0.0,
        -1.0,
        2.220446049250313e-16,
        0.0,
        0.0,
        0.0,
        0.0,
        1.0
      ],
      "name": "GLTF_SceneRootNode"
    },
    {
      "children": [
        4
      ],
      "name": "T_Shirt_0",
      "rotation": [
        -0.0028421918395906687,
        0.8155689239501953,
        -0.00032338936580345035,
        0.5786529183387756
      ],
      "scale": [
        0.010677247308194637,
        0.010677249170839787,
        0.010677249170839787
      ],
      "translation": [
        -0.24793842434883118,
        0.05557338520884514,
        -0.31044653058052063
      ]
    },
    {
      "mesh": 0,
      "name": "Object_4"
    },
    {
      "name": "PhysCamera001_1",
      "rotation": [
        0.6839008331298828,
        0.11330047249794006,
        -0.1087571531534195,
        0.7124707102775574
      ],
      "scale": [
        0.010000000707805157,
        0.009999999776482582,
        0.010000001639127731
      ],
      "translation": [
        0.5137153267860413,
        0.4086543917655945,
        2.128063201904297
      ]
    },
    {
      "children": [
        7
      ],
      "name": "Backdrop_V2_8"
    },
    {
      "mesh": 1,
      "name": "mesh_1"
    },
    {
      "children": [
        9
      ],
      "matrix": [
        1.0,
        0.0,
        0.0,
        0.0,
        0.0,
        1.0,
        0.0,
        0.0,
        0.0,
        0.0,
        1.0,
        0.0,
        -0.12798234820365906,
        0.6839250326156616,
        0.01874631643295288,
        1.0
      ],
      "name": "For_Indirect_Baking_19"
    },
    {
      "mesh": 2,
      "name": "Object_9"
    }
  ],
  "scene": 0,
  "scenes": [
    {
      "name": "Sketchfab_Scene",
      "nodes": [
        0
      ]
    }
  ]
}
